<?xml version="1.0" encoding="UTF-8" standalone="no"?>
<!-- Created with Inkscape (http://www.inkscape.org/) -->

<svg
   width="24"
   height="24"
   viewBox="0 0 24 24"
   version="1.1"
   id="svg5"
   inkscape:version="1.1.1 (3bf5ae0d25, 2021-09-20)"
   sodipodi:docname="menu_favorites.svg"
   xmlns:inkscape="http://www.inkscape.org/namespaces/inkscape"
   xmlns:sodipodi="http://sodipodi.sourceforge.net/DTD/sodipodi-0.dtd"
   xmlns="http://www.w3.org/2000/svg"
   xmlns:svg="http://www.w3.org/2000/svg">
  <sodipodi:namedview
     id="namedview7"
     pagecolor="#ffffff"
     bordercolor="#666666"
     borderopacity="1.0"
     inkscape:pageshadow="2"
     inkscape:pageopacity="0.0"
     inkscape:pagecheckerboard="0"
     inkscape:document-units="px"
     showgrid="false"
     units="px"
     inkscape:zoom="14.493388"
     inkscape:cx="15.006843"
     inkscape:cy="10.798027"
     inkscape:window-width="1680"
     inkscape:window-height="987"
     inkscape:window-x="1672"
     inkscape:window-y="-8"
     inkscape:window-maximized="1"
     inkscape:current-layer="layer1"
     showguides="true"
     inkscape:guide-bbox="true"
     scale-x="1" />
  <defs
     id="defs2" />
  <g
     inkscape:label="Lager 1"
     inkscape:groupmode="layer"
     id="layer1">
    <text
       xml:space="preserve"
       style="font-size:16px;line-height:1.25;font-family:'Segoe UI Symbol';-inkscape-font-specification:'Segoe UI Symbol'"
       x="31.069735"
       y="20"
       id="text3222"><tspan
         sodipodi:role="line"
         id="tspan3220"
         x="31.069735"
         y="20"
         style="font-style:normal;font-variant:normal;font-weight:normal;font-stretch:normal;font-size:16px;font-family:'Segoe MDL2 Assets';-inkscape-font-specification:'Segoe MDL2 Assets'"></tspan></text>
    <g
       aria-label=""
       id="text3222-6"
       style="font-size:16px;line-height:1.25;font-family:'Segoe UI Symbol';-inkscape-font-specification:'Segoe UI Symbol'">
      <path
         d="M 9.5,16 Q 9.1875,16 8.9140625,15.882813 8.640625,15.765625 8.4375,15.5625 8.234375,15.359375 8.1171875,15.085938 8,14.8125 8,14.5 v -9 Q 8,5.1875 8.1171875,4.9140625 8.234375,4.640625 8.4375,4.4375 8.640625,4.234375 8.9140625,4.1171875 9.1875,4 9.5,4 h 4 Q 13.8125,4 14.085938,4.1171875 14.359375,4.234375 14.5625,4.4375 14.765625,4.640625 14.882813,4.9140625 15,5.1875 15,5.5 v 9 q 0,0.3125 -0.117187,0.585938 Q 14.765625,15.359375 14.5625,15.5625 14.359375,15.765625 14.085938,15.882813 13.8125,16 13.5,16 Z M 9,14.5 Q 9,14.703125 9.1484375,14.851563 9.296875,15 9.5,15 h 4 q 0.203125,0 0.351563,-0.148437 Q 14,14.703125 14,14.5 v -9 Q 14,5.296875 13.851563,5.1484375 13.703125,5 13.5,5 h -4 Q 9.296875,5 9.1484375,5.1484375 9,5.296875 9,5.5 Z M 17,12 v 2.828125 q 0,0.65625 -0.25,1.234375 -0.25,0.578125 -0.679688,1.007812 Q 15.640625,17.5 15.0625,17.75 14.484375,18 13.828125,18 H 12 v 1 h 2 v 1 H 9 v -1 h 2 V 18 H 9.171875 Q 8.515625,18 7.9375,17.75 7.359375,17.5 6.9296875,17.070312 6.5,16.640625 6.25,16.0625 6,15.484375 6,14.828125 V 12 h 1 v 2.828125 q 0,0.445313 0.171875,0.84375 0.171875,0.398437 0.4609375,0.695312 0.296875,0.289063 0.6953125,0.460938 Q 8.7265625,17 9.171875,17 h 4.65625 q 0.445313,0 0.84375,-0.171875 0.398438,-0.171875 0.6875,-0.460938 0.296875,-0.296875 0.46875,-0.695312 Q 16,15.273438 16,14.828125 V 12 Z"
         style="font-family:'Segoe MDL2 Assets';-inkscape-font-specification:'Segoe MDL2 Assets'"
         id="path3439" />
    </g>
    <g
       aria-label=""
       id="text3222-3"
       style="font-size:13.3333px;line-height:1.25;font-family:'Segoe UI Symbol';-inkscape-font-specification:'Segoe UI Symbol'"
       transform="translate(2.8116269,0.89696073)" />
  </g>
</svg>
