<?xml version="1.0" encoding="UTF-8" standalone="no"?>
<!-- Created with Inkscape (http://www.inkscape.org/) -->

<svg
   width="24"
   height="24"
   viewBox="0 0 24 24"
   version="1.1"
   id="svg5"
   inkscape:version="1.1.1 (3bf5ae0d25, 2021-09-20)"
   sodipodi:docname="menu_settings.svg"
   xmlns:inkscape="http://www.inkscape.org/namespaces/inkscape"
   xmlns:sodipodi="http://sodipodi.sourceforge.net/DTD/sodipodi-0.dtd"
   xmlns="http://www.w3.org/2000/svg"
   xmlns:svg="http://www.w3.org/2000/svg">
  <sodipodi:namedview
     id="namedview7"
     pagecolor="#ffffff"
     bordercolor="#666666"
     borderopacity="1.0"
     inkscape:pageshadow="2"
     inkscape:pageopacity="0.0"
     inkscape:pagecheckerboard="0"
     inkscape:document-units="px"
     showgrid="false"
     units="px"
     inkscape:zoom="14.493388"
     inkscape:cx="15.006843"
     inkscape:cy="10.798027"
     inkscape:window-width="1680"
     inkscape:window-height="987"
     inkscape:window-x="1672"
     inkscape:window-y="-8"
     inkscape:window-maximized="1"
     inkscape:current-layer="text3222-2"
     showguides="true"
     inkscape:guide-bbox="true"
     scale-x="1" />
  <defs
     id="defs2" />
  <g
     inkscape:label="Lager 1"
     inkscape:groupmode="layer"
     id="layer1">
    <text
       xml:space="preserve"
       style="font-size:16px;line-height:1.25;font-family:'Segoe UI Symbol';-inkscape-font-specification:'Segoe UI Symbol'"
       x="31.069735"
       y="20"
       id="text3222"><tspan
         sodipodi:role="line"
         id="tspan3220"
         x="31.069735"
         y="20"
         style="font-style:normal;font-variant:normal;font-weight:normal;font-stretch:normal;font-size:16px;font-family:'Segoe MDL2 Assets';-inkscape-font-specification:'Segoe MDL2 Assets'"></tspan></text>
    <g
       aria-label=""
       id="text3222-2"
       style="font-size:16px;font-family:'Segoe UI Symbol';-inkscape-font-specification:'Segoe UI Symbol'">
      <path
         d="m 17.929687,11.71875 q 0,0.07031 0,0.140625 0.0078,0.07031 0.0078,0.140625 0,0.07031 -0.0078,0.140625 0,0.07031 0,0.140625 L 19.953125,13.539063 18.710937,16.53125 16.390625,16 Q 16.203125,16.203125 16,16.390625 l 0.53125,2.320312 -2.992187,1.242188 -1.257813,-2.023438 q -0.07031,0 -0.140625,0.0078 -0.07031,0 -0.140625,0 -0.07031,0 -0.140625,0 -0.07031,-0.0078 -0.140625,-0.0078 L 10.460938,19.953125 7.46875,18.710937 8,16.390625 Q 7.796875,16.203125 7.609375,16 L 5.2890625,16.53125 4.046875,13.539063 6.0703125,12.28125 q 0,-0.07031 -0.00781,-0.140625 0,-0.07031 0,-0.140625 0,-0.07031 0,-0.140625 0.00781,-0.07031 0.00781,-0.140625 L 4.046875,10.460938 5.2890625,7.46875 7.609375,8 Q 7.796875,7.796875 8,7.609375 L 7.46875,5.2890625 10.460938,4.046875 11.71875,6.0703125 q 0.07031,0 0.140625,0 Q 11.929688,6.0625 12,6.0625 q 0.07031,0 0.140625,0.00781 0.07031,0 0.140625,0 L 13.539063,4.046875 16.53125,5.2890625 16,7.609375 Q 16.203125,7.796875 16.390625,8 l 2.320312,-0.53125 1.242188,2.992188 z m -0.914062,1.015625 q 0.01563,-0.1875 0.03125,-0.367187 0.01563,-0.1875 0.01563,-0.375 0,-0.179688 -0.01563,-0.367188 -0.01563,-0.1875 -0.03125,-0.367187 l 1.84375,-1.148438 -0.671875,-1.625 -2.117188,0.4921875 q -0.242187,-0.296875 -0.499999,-0.546875 -0.25,-0.25 -0.546875,-0.5 L 15.515625,5.8125 l -1.625,-0.671875 -1.15625,1.84375 Q 12.554688,6.96875 12.367188,6.953125 12.179688,6.9375 12,6.9375 q -0.1875,0 -0.375,0.015625 -0.179687,0.015625 -0.367187,0.03125 l -1.148438,-1.84375 -1.625,0.671875 0.4921875,2.1171875 q -0.296875,0.2421875 -0.546875,0.5 -0.25,0.25 -0.5,0.546875 L 5.8125,8.484375 l -0.671875,1.625 1.84375,1.15625 q -0.015625,0.1875 -0.03125,0.375 -0.015625,0.179688 -0.015625,0.367188 0,0.179687 0.015625,0.367187 0.015625,0.1875 0.03125,0.367188 l -1.84375,1.148437 0.671875,1.625 2.1171875,-0.492187 q 0.2421875,0.296875 0.4921875,0.546875 0.2578125,0.25 0.5546875,0.499999 L 8.484375,18.1875 l 1.625,0.671875 1.15625,-1.84375 q 0.179688,0.01563 0.367188,0.03125 0.1875,0.01563 0.367187,0.01563 0.1875,0 0.367188,-0.01563 0.1875,-0.01563 0.375,-0.03125 l 1.148437,1.84375 1.625,-0.671875 -0.492187,-2.117188 q 0.296875,-0.242187 0.546875,-0.492187 0.25,-0.257812 0.499999,-0.554687 l 2.117188,0.492187 0.671875,-1.625 z M 12,9.0625 q 0.609375,0 1.140625,0.234375 0.539063,0.2265625 0.9375,0.625 0.398438,0.398438 0.625,0.9375 Q 14.9375,11.390625 14.9375,12 q 0,0.609375 -0.234375,1.148438 -0.226562,0.53125 -0.625,0.929687 -0.398437,0.398438 -0.9375,0.632813 Q 12.609375,14.9375 12,14.9375 q -0.609375,0 -1.148437,-0.226562 Q 10.320313,14.476563 9.921875,14.078125 9.5234375,13.679688 9.2890625,13.148438 9.0625,12.609375 9.0625,12 q 0,-0.609375 0.2265625,-1.140625 0.234375,-0.539062 0.6328125,-0.9375 0.398438,-0.3984375 0.929688,-0.625 Q 11.390625,9.0625 12,9.0625 Z m 0,5 q 0.429688,0 0.804688,-0.15625 0.375,-0.164062 0.65625,-0.445312 0.28125,-0.28125 0.4375,-0.65625 Q 14.0625,12.429688 14.0625,12 q 0,-0.429687 -0.164062,-0.804687 -0.15625,-0.375 -0.4375,-0.65625 -0.28125,-0.28125 -0.65625,-0.4375 Q 12.429688,9.9375 12,9.9375 q -0.429687,0 -0.804687,0.164063 -0.375,0.15625 -0.65625,0.4375 -0.28125,0.28125 -0.445313,0.65625 Q 9.9375,11.570313 9.9375,12 q 0,0.429688 0.15625,0.804688 0.164063,0.375 0.445313,0.65625 0.28125,0.28125 0.65625,0.445312 0.375,0.15625 0.804687,0.15625 z"
         style="-inkscape-font-specification:'Segoe MDL2 Assets'"
         id="path4179" />
    </g>
    <g
       aria-label=""
       id="text3222-3"
       style="font-size:13.3333px;line-height:1.25;font-family:'Segoe UI Symbol';-inkscape-font-specification:'Segoe UI Symbol'"
       transform="translate(2.8116269,0.89696073)" />
  </g>
</svg>
