<?xml version="1.0" encoding="UTF-8" standalone="no"?>
<!-- Created with Inkscape (http://www.inkscape.org/) -->

<svg
   width="24"
   height="24"
   viewBox="0 0 24 24"
   version="1.1"
   id="svg5"
   inkscape:version="1.1.1 (3bf5ae0d25, 2021-09-20)"
   sodipodi:docname="toolbar_sleeptimer_24px_margin_4px.svg"
   xmlns:inkscape="http://www.inkscape.org/namespaces/inkscape"
   xmlns:sodipodi="http://sodipodi.sourceforge.net/DTD/sodipodi-0.dtd"
   xmlns="http://www.w3.org/2000/svg"
   xmlns:svg="http://www.w3.org/2000/svg">
  <sodipodi:namedview
     id="namedview7"
     pagecolor="#ffffff"
     bordercolor="#666666"
     borderopacity="1.0"
     inkscape:showpageshadow="2"
     inkscape:pageopacity="0.0"
     inkscape:pagecheckerboard="0"
     inkscape:deskcolor="#d1d1d1"
     inkscape:document-units="mm"
     showgrid="false"
     inkscape:zoom="3.6596241"
     inkscape:cx="-20.630534"
     inkscape:cy="44.130216"
     inkscape:window-width="1680"
     inkscape:window-height="987"
     inkscape:window-x="1672"
     inkscape:window-y="-8"
     inkscape:window-maximized="1"
     inkscape:current-layer="layer1"
     inkscape:pageshadow="2"
     width="22px"
     showguides="true"
     inkscape:guide-bbox="true">
    <sodipodi:guide
       position="0,20"
       orientation="0,1"
       id="guide1023"
       inkscape:label=""
       inkscape:locked="false"
       inkscape:color="rgb(0,0,255)" />
    <sodipodi:guide
       position="0,4"
       orientation="0,1"
       id="guide1025"
       inkscape:label=""
       inkscape:locked="false"
       inkscape:color="rgb(0,0,255)" />
    <sodipodi:guide
       position="4,24"
       orientation="-1,0"
       id="guide1027"
       inkscape:label=""
       inkscape:locked="false"
       inkscape:color="rgb(0,0,255)" />
    <sodipodi:guide
       position="20,24"
       orientation="-1,0"
       id="guide1029"
       inkscape:label=""
       inkscape:locked="false"
       inkscape:color="rgb(0,0,255)" />
  </sodipodi:namedview>
  <defs
     id="defs2" />
  <g
     inkscape:label="Lager 1"
     inkscape:groupmode="layer"
     id="layer1">
    <text
       xml:space="preserve"
       style="font-size:16px;line-height:1.25;font-family:'Segoe UI Symbol';-inkscape-font-specification:'Segoe UI Symbol'"
       x="29.851894"
       y="19.782209"
       id="text3222"><tspan
         sodipodi:role="line"
         id="tspan3220"
         x="29.851894"
         y="19.782209"
         style="font-style:normal;font-variant:normal;font-weight:normal;font-stretch:normal;font-size:16px;font-family:'Segoe MDL2 Assets';-inkscape-font-specification:'Segoe MDL2 Assets'"></tspan></text>
    <path
       d="m 16.804687,7.90625 c 0.703125,0.708333 1.244792,1.484375 1.625,2.328125 C 18.809896,11.072917 19,11.994792 19,13 c 0,0.645833 -0.08333,1.268229 -0.25,1.867188 -0.166667,0.59375 -0.403646,1.151042 -0.710938,1.671875 -0.302083,0.515625 -0.666667,0.986979 -1.09375,1.414062 C 16.523437,18.375 16.052083,18.739584 15.53125,19.046875 15.015625,19.348958 14.458333,19.583333 13.859375,19.75 13.265625,19.916667 12.645833,20 12,20 11.354167,20 10.731771,19.91667 10.132812,19.75 9.5390623,19.583333 8.9817706,19.348958 8.4609373,19.046875 7.9453123,18.739584 7.4739581,18.375 7.0468748,17.953125 6.6249998,17.526042 6.2604165,17.054688 5.9531248,16.539063 5.6510415,16.01823 5.4166665,15.460938 5.2499998,14.867188 5.0833331,14.268229 4.9999997,13.645833 4.9999997,13 c 0,-0.578125 0.067708,-1.140625 0.2031251,-1.6875 C 5.3437498,10.765625 5.5390623,10.25 5.7890623,9.765625 6.0442706,9.28125 6.3515623,8.833334 6.7109373,8.421875 7.0703123,8.005208 7.471354,7.638021 7.9140623,7.320313 8.3567706,6.997396 8.8385415,6.729167 9.3593748,6.515625 9.8802084,6.302084 10.427083,6.153646 11,6.070313 V 5 H 8.9999998 V 4 H 14 v 1 h -2 v 1 c 0.723958,0 1.427083,0.106771 2.109375,0.320313 0.6875,0.213541 1.325521,0.53125 1.914062,0.953125 l 1.625,-1.625 0.703125,0.703125 z M 12,19 c 0.828125,0 1.604166,-0.15625 2.328125,-0.46875 0.729167,-0.317708 1.364583,-0.747395 1.90625,-1.289062 0.546875,-0.546875 0.976562,-1.182292 1.289062,-1.90625 C 17.841146,14.606771 18,13.828125 18,13 18,12.171875 17.841146,11.395834 17.523437,10.671875 17.210937,9.942708 16.78125,9.307292 16.234375,8.765625 15.692708,8.21875 15.057292,7.789063 14.328125,7.476563 13.604166,7.158854 12.828125,7 12,7 11.171875,7 10.393229,7.158854 9.6640622,7.476563 8.9401039,7.789063 8.3046872,8.21875 7.7578122,8.765625 7.2161455,9.307292 6.786458,9.942708 6.4687497,10.671875 c -0.3125,0.723959 -0.46875,1.5 -0.46875,2.328125 0,0.828125 0.15625,1.606771 0.46875,2.335938 0.3177083,0.723958 0.7473958,1.359375 1.2890625,1.90625 0.546875,0.541667 1.1822917,0.971354 1.90625,1.289062 C 10.393229,18.84375 11.171875,19 12,19 Z"
       style="font-size:16px;line-height:1.25;font-family:'Segoe MDL2 Assets';-inkscape-font-specification:'Segoe MDL2 Assets'"
       id="path3165"
       sodipodi:nodetypes="ccsccsccscccccsccccscccccccccccccscscscccscscscccs" />
    <path
       d="m 14.515625,13.384748 c 0.166667,0 0.330729,-0.01302 0.492187,-0.03906 0.161459,-0.03125 0.320313,-0.07552 0.476563,-0.132813 -0.04167,0.447917 -0.161458,0.864583 -0.359375,1.25 -0.197917,0.385417 -0.453125,0.721354 -0.765625,1.007813 -0.307292,0.286458 -0.661459,0.510416 -1.0625,0.671875 -0.401042,0.161458 -0.828125,0.242187 -1.28125,0.242187 -0.484375,0 -0.940105,-0.09115 -1.367188,-0.273437 -0.421875,-0.182292 -0.7916656,-0.432292 -1.1093749,-0.75 -0.317708,-0.317709 -0.567708,-0.6875 -0.75,-1.109375 -0.182291,-0.427083 -0.273437,-0.882813 -0.273437,-1.367188 0,-0.453125 0.08073,-0.880208 0.2421871,-1.28125 0.1614589,-0.401041 0.385417,-0.755208 0.671875,-1.0625 C 9.7161461,10.2285 10.052083,9.973292 10.4375,9.775375 10.822917,9.577458 11.239583,9.457667 11.6875,9.416 c -0.05729,0.15625 -0.101564,0.315104 -0.132813,0.476563 -0.02604,0.161458 -0.03906,0.32552 -0.03906,0.492187 0,0.416667 0.07813,0.807292 0.234375,1.171875 0.15625,0.359375 0.369792,0.677084 0.640625,0.953125 0.276041,0.270833 0.59375,0.484375 0.953125,0.640625 0.364583,0.15625 0.755208,0.234375 1.171875,0.234375 z m -2.5,2.125 c 0.458333,0 0.885417,-0.111979 1.28125,-0.335937 0.395833,-0.223959 0.710937,-0.53125 0.945312,-0.921875 -0.479167,-0.03125 -0.929687,-0.14583 -1.351562,-0.34375 -0.421875,-0.203125 -0.794271,-0.463542 -1.117188,-0.78125 -0.317708,-0.322917 -0.578125,-0.695313 -0.78125,-1.117188 -0.197917,-0.421875 -0.3125,-0.872395 -0.34375,-1.351562 -0.390625,0.234375 -0.6979156,0.549479 -0.9218748,0.945312 -0.223958,0.395833 -0.3359372,0.822917 -0.3359372,1.28125 0,0.364583 0.06771,0.705729 0.203125,1.023438 0.140625,0.317708 0.3281253,0.596354 0.5625,0.835937 0.239583,0.234375 0.518229,0.421875 0.835937,0.5625 0.317709,0.135417 0.658855,0.203125 1.023438,0.203125 z"
       style="font-size:16px;line-height:1.25;font-family:'Segoe MDL2 Assets';-inkscape-font-specification:'Segoe MDL2 Assets'"
       id="path3167"
       sodipodi:nodetypes="sccscsscscsscsccscccsssscccccsscccs" />
  </g>
</svg>
