<?xml version="1.0" encoding="UTF-8" standalone="no"?>
<!-- Created with Inkscape (http://www.inkscape.org/) -->

<svg
   width="24"
   height="24"
   viewBox="0 0 24 24"
   version="1.1"
   id="svg5"
   inkscape:version="1.1.1 (3bf5ae0d25, 2021-09-20)"
   sodipodi:docname="toolbar_delete_24px_margin_4px.svg"
   xmlns:inkscape="http://www.inkscape.org/namespaces/inkscape"
   xmlns:sodipodi="http://sodipodi.sourceforge.net/DTD/sodipodi-0.dtd"
   xmlns="http://www.w3.org/2000/svg"
   xmlns:svg="http://www.w3.org/2000/svg">
  <sodipodi:namedview
     id="namedview7"
     pagecolor="#ffffff"
     bordercolor="#666666"
     borderopacity="1.0"
     inkscape:showpageshadow="2"
     inkscape:pageopacity="0.0"
     inkscape:pagecheckerboard="0"
     inkscape:deskcolor="#d1d1d1"
     inkscape:document-units="mm"
     showgrid="false"
     inkscape:zoom="10.35098"
     inkscape:cx="16.085433"
     inkscape:cy="24.587044"
     inkscape:window-width="1680"
     inkscape:window-height="987"
     inkscape:window-x="1672"
     inkscape:window-y="-8"
     inkscape:window-maximized="1"
     inkscape:current-layer="text3222-0-4-6"
     inkscape:pageshadow="2"
     width="22px"
     showguides="true"
     inkscape:guide-bbox="true">
    <sodipodi:guide
       position="0,20"
       orientation="0,1"
       id="guide1023"
       inkscape:label=""
       inkscape:locked="false"
       inkscape:color="rgb(0,0,255)" />
    <sodipodi:guide
       position="0,4"
       orientation="0,1"
       id="guide1025"
       inkscape:label=""
       inkscape:locked="false"
       inkscape:color="rgb(0,0,255)" />
    <sodipodi:guide
       position="4,24"
       orientation="-1,0"
       id="guide1027"
       inkscape:label=""
       inkscape:locked="false"
       inkscape:color="rgb(0,0,255)" />
    <sodipodi:guide
       position="20,24"
       orientation="-1,0"
       id="guide1029"
       inkscape:label=""
       inkscape:locked="false"
       inkscape:color="rgb(0,0,255)" />
  </sodipodi:namedview>
  <defs
     id="defs2" />
  <g
     inkscape:label="Lager 1"
     inkscape:groupmode="layer"
     id="layer1">
    <text
       xml:space="preserve"
       style="font-size:16px;line-height:1.25;font-family:'Segoe UI Symbol';-inkscape-font-specification:'Segoe UI Symbol'"
       x="58.494644"
       y="24.181622"
       id="text3222-0"><tspan
         sodipodi:role="line"
         id="tspan3220-3"
         x="58.494644"
         y="24.181622"
         style="font-style:normal;font-variant:normal;font-weight:normal;font-stretch:normal;font-size:16px;font-family:'Segoe MDL2 Assets';-inkscape-font-specification:'Segoe MDL2 Assets'"></tspan></text>
    <text
       xml:space="preserve"
       style="font-size:16px;line-height:1.25;font-family:'Segoe UI Symbol';-inkscape-font-specification:'Segoe UI Symbol'"
       x="26.952358"
       y="20.039021"
       id="text3222-0-4"><tspan
         sodipodi:role="line"
         id="tspan3220-3-3"
         x="26.952358"
         y="20.039021"
         style="font-style:normal;font-variant:normal;font-weight:normal;font-stretch:normal;font-size:16px;font-family:'Segoe MDL2 Assets';-inkscape-font-specification:'Segoe MDL2 Assets'"></tspan></text>
    <g
       aria-label=""
       id="text3222-0-4-6"
       style="font-size:16px;line-height:1.25;font-family:'Segoe UI Symbol';-inkscape-font-specification:'Segoe UI Symbol'">
      <path
         d="m 18,7 h -1 v 11.5 q 0,0.3125 -0.117188,0.585937 Q 16.765625,19.359375 16.5625,19.5625 16.359375,19.765625 16.085937,19.882812 15.8125,20 15.5,20 h -8 Q 7.1875,20 6.9140625,19.882812 6.640625,19.765625 6.4375,19.5625 6.234375,19.359375 6.1171875,19.085937 6,18.8125 6,18.5 V 7 H 5 V 6 H 9 V 5 Q 9,4.7890625 9.078125,4.609375 9.15625,4.4296875 9.2890625,4.296875 9.4296875,4.15625 9.609375,4.078125 9.7890625,4 10,4 h 3 q 0.210938,0 0.390625,0.078125 0.179688,0.078125 0.3125,0.21875 0.140625,0.1328125 0.21875,0.3125 Q 14,4.7890625 14,5 v 1 h 4 z M 10,6 h 3 V 5 h -3 z m 6,1 H 7 V 18.5 Q 7,18.703125 7.1484375,18.851562 7.296875,19 7.5,19 h 8 q 0.203125,0 0.351563,-0.148438 Q 16,18.703125 16,18.5 Z M 10,17 H 9 V 9 h 1 z m 2,0 H 11 V 9 h 1 z m 2,0 H 13 V 9 h 1 z"
         style="font-family:'Segoe MDL2 Assets';-inkscape-font-specification:'Segoe MDL2 Assets'"
         id="path1512" />
    </g>
  </g>
</svg>
