<?xml version="1.0" encoding="UTF-8" standalone="no"?>
<!-- Created with Inkscape (http://www.inkscape.org/) -->

<svg
   width="16"
   height="16"
   viewBox="0 0 16 16"
   version="1.1"
   id="svg5"
   inkscape:version="1.1.1 (3bf5ae0d25, 2021-09-20)"
   sodipodi:docname="toolbar_favorite_inactive_16px.svg"
   xmlns:inkscape="http://www.inkscape.org/namespaces/inkscape"
   xmlns:sodipodi="http://sodipodi.sourceforge.net/DTD/sodipodi-0.dtd"
   xmlns="http://www.w3.org/2000/svg"
   xmlns:svg="http://www.w3.org/2000/svg">
  <sodipodi:namedview
     id="namedview7"
     pagecolor="#ffffff"
     bordercolor="#666666"
     borderopacity="1.0"
     inkscape:showpageshadow="2"
     inkscape:pageopacity="0.0"
     inkscape:pagecheckerboard="0"
     inkscape:deskcolor="#d1d1d1"
     inkscape:document-units="mm"
     showgrid="false"
     inkscape:zoom="10.35098"
     inkscape:cx="16.858307"
     inkscape:cy="15.505778"
     inkscape:window-width="1680"
     inkscape:window-height="987"
     inkscape:window-x="1672"
     inkscape:window-y="-8"
     inkscape:window-maximized="1"
     inkscape:current-layer="text3222-7"
     inkscape:pageshadow="2"
     width="22px" />
  <defs
     id="defs2" />
  <g
     inkscape:label="Lager 1"
     inkscape:groupmode="layer"
     id="layer1">
    <text
       xml:space="preserve"
       style="font-size:16px;line-height:1.25;font-family:'Segoe UI Symbol';-inkscape-font-specification:'Segoe UI Symbol'"
       x="22.156185"
       y="15.808772"
       id="text3222"><tspan
         sodipodi:role="line"
         id="tspan3220"
         x="22.156185"
         y="15.808772"
         style="font-style:normal;font-variant:normal;font-weight:normal;font-stretch:normal;font-size:16px;font-family:'Segoe MDL2 Assets';-inkscape-font-specification:'Segoe MDL2 Assets'"></tspan></text>
    <g
       aria-label=""
       id="text3222-7"
       style="font-size:16px;line-height:1.25;font-family:'Segoe UI Symbol';-inkscape-font-specification:'Segoe UI Symbol'">
      <path
         d="M 11.0625,9.796875 13,16 8,12.15625 3,16 4.9375,9.796875 0,6 H 6.125 L 8,0 9.875,6 H 16 Z m 0.03906,3.484375 Q 10.804688,12.3125 10.507813,11.359375 10.210938,10.398438 9.8984375,9.4296875 10.703125,8.828125 11.484375,8.21875 12.265625,7.609375 13.0625,7 H 9.140625 L 8,3.3515625 6.859375,7 H 2.9375 q 0.796875,0.609375 1.578125,1.21875 0.78125,0.609375 1.5859375,1.2109375 -0.3125,0.9687505 -0.609375,1.9296875 -0.296875,0.953125 -0.59375,1.921875 L 8,10.890625 Z"
         style="font-family:'Segoe MDL2 Assets';-inkscape-font-specification:'Segoe MDL2 Assets'"
         id="path1598" />
    </g>
  </g>
</svg>
