<?xml version="1.0" encoding="UTF-8" standalone="no"?>
<!-- Created with Inkscape (http://www.inkscape.org/) -->

<svg
   width="16"
   height="16"
   viewBox="0 0 16 16"
   version="1.1"
   id="svg5"
   inkscape:version="1.1.1 (3bf5ae0d25, 2021-09-20)"
   sodipodi:docname="toolbar_delete_16px.svg"
   xmlns:inkscape="http://www.inkscape.org/namespaces/inkscape"
   xmlns:sodipodi="http://sodipodi.sourceforge.net/DTD/sodipodi-0.dtd"
   xmlns="http://www.w3.org/2000/svg"
   xmlns:svg="http://www.w3.org/2000/svg">
  <sodipodi:namedview
     id="namedview7"
     pagecolor="#ffffff"
     bordercolor="#666666"
     borderopacity="1.0"
     inkscape:showpageshadow="2"
     inkscape:pageopacity="0.0"
     inkscape:pagecheckerboard="0"
     inkscape:deskcolor="#d1d1d1"
     inkscape:document-units="mm"
     showgrid="false"
     inkscape:zoom="10.35098"
     inkscape:cx="-5.2652019"
     inkscape:cy="14.539686"
     inkscape:window-width="1680"
     inkscape:window-height="987"
     inkscape:window-x="1672"
     inkscape:window-y="-8"
     inkscape:window-maximized="1"
     inkscape:current-layer="layer1"
     inkscape:pageshadow="2"
     width="22px" />
  <defs
     id="defs2" />
  <g
     inkscape:label="Lager 1"
     inkscape:groupmode="layer"
     id="layer1">
    <text
       xml:space="preserve"
       style="font-size:16px;line-height:1.25;font-family:'Segoe UI Symbol';-inkscape-font-specification:'Segoe UI Symbol'"
       x="23.859266"
       y="16.011328"
       id="text3222-0"><tspan
         sodipodi:role="line"
         id="tspan3220-3"
         x="23.859266"
         y="16.011328"
         style="font-style:normal;font-variant:normal;font-weight:normal;font-stretch:normal;font-size:16px;font-family:'Segoe MDL2 Assets';-inkscape-font-specification:'Segoe MDL2 Assets'"></tspan></text>
    <g
       aria-label=""
       id="text3222-0-9"
       style="font-size:16px;line-height:1.25;font-family:'Segoe UI Symbol';-inkscape-font-specification:'Segoe UI Symbol'">
      <path
         d="m 14,3 h -1 v 11.5 q 0,0.3125 -0.117187,0.585938 Q 12.765625,15.359375 12.5625,15.5625 12.359375,15.765625 12.085938,15.882813 11.8125,16 11.5,16 h -8 Q 3.1875,16 2.9140625,15.882813 2.640625,15.765625 2.4375,15.5625 2.234375,15.359375 2.1171875,15.085938 2,14.8125 2,14.5 V 3 H 1 V 2 H 5 V 1 Q 5,0.7890625 5.078125,0.609375 5.15625,0.4296875 5.2890625,0.296875 5.4296875,0.15625 5.609375,0.078125 5.7890625,0 6,0 h 3 q 0.2109375,0 0.390625,0.078125 0.1796875,0.078125 0.3125,0.21875 0.140625,0.1328125 0.21875,0.3125 Q 10,0.7890625 10,1 v 1 h 4 z M 6,2 H 9 V 1 H 6 Z m 6,1 H 3 V 14.5 Q 3,14.703125 3.1484375,14.851563 3.296875,15 3.5,15 h 8 q 0.203125,0 0.351563,-0.148437 Q 12,14.703125 12,14.5 Z M 6,13 H 5 V 5 h 1 z m 2,0 H 7 V 5 h 1 z m 2,0 H 9 V 5 h 1 z"
         style="font-family:'Segoe MDL2 Assets';-inkscape-font-specification:'Segoe MDL2 Assets'"
         id="path1792" />
    </g>
  </g>
</svg>
