<?xml version="1.0" encoding="UTF-8" standalone="no"?>
<!-- Created with Inkscape (http://www.inkscape.org/) -->

<svg
   width="16"
   height="16"
   viewBox="0 0 16 16"
   version="1.1"
   id="svg5"
   inkscape:version="1.1.1 (3bf5ae0d25, 2021-09-20)"
   sodipodi:docname="toolbar_sleeptimer_16px.svg"
   xmlns:inkscape="http://www.inkscape.org/namespaces/inkscape"
   xmlns:sodipodi="http://sodipodi.sourceforge.net/DTD/sodipodi-0.dtd"
   xmlns="http://www.w3.org/2000/svg"
   xmlns:svg="http://www.w3.org/2000/svg">
  <sodipodi:namedview
     id="namedview7"
     pagecolor="#ffffff"
     bordercolor="#666666"
     borderopacity="1.0"
     inkscape:showpageshadow="2"
     inkscape:pageopacity="0.0"
     inkscape:pagecheckerboard="0"
     inkscape:deskcolor="#d1d1d1"
     inkscape:document-units="mm"
     showgrid="false"
     inkscape:zoom="10.35098"
     inkscape:cx="10.675318"
     inkscape:cy="3.8160638"
     inkscape:window-width="1680"
     inkscape:window-height="987"
     inkscape:window-x="1672"
     inkscape:window-y="-8"
     inkscape:window-maximized="1"
     inkscape:current-layer="layer1"
     inkscape:pageshadow="2"
     width="22px"
     showguides="true"
     inkscape:guide-bbox="true" />
  <defs
     id="defs2" />
  <g
     inkscape:label="Lager 1"
     inkscape:groupmode="layer"
     id="layer1">
    <text
       xml:space="preserve"
       style="font-size:16px;line-height:1.25;font-family:'Segoe UI Symbol';-inkscape-font-specification:'Segoe UI Symbol'"
       x="23.859266"
       y="16"
       id="text3222-0"><tspan
         sodipodi:role="line"
         id="tspan3220-3"
         x="23.859266"
         y="16"
         style="font-style:normal;font-variant:normal;font-weight:normal;font-stretch:normal;font-size:16px;font-family:'Segoe MDL2 Assets';-inkscape-font-specification:'Segoe MDL2 Assets'"></tspan></text>
    <path
       d="m 12.804687,3.90625 c 0.703125,0.708333 1.244792,1.484375 1.625,2.328125 C 14.809896,7.072917 15,7.994792 15,9 c 0,0.645833 -0.08333,1.268229 -0.25,1.867188 -0.166667,0.59375 -0.403646,1.151042 -0.710938,1.671875 -0.302083,0.515625 -0.666667,0.986979 -1.09375,1.414062 C 12.523437,14.375 12.052083,14.739584 11.53125,15.046875 11.015625,15.348958 10.458333,15.583333 9.8593753,15.75 9.2656253,15.916667 8.6458333,16 8.0000003,16 7.3541673,16 6.731771,15.91667 6.1328123,15.75 5.5390623,15.583333 4.9817706,15.348958 4.4609373,15.046875 3.9453123,14.739584 3.4739581,14.375 3.0468748,13.953125 2.6249998,13.526042 2.2604165,13.054688 1.9531248,12.539063 1.6510415,12.01823 1.4166665,11.460938 1.2499998,10.867188 1.0833331,10.268229 0.99999975,9.645833 0.99999975,9 c 0,-0.578125 0.0677081,-1.140625 0.20312505,-1.6875 C 1.3437498,6.765625 1.5390623,6.25 1.7890623,5.765625 2.0442706,5.28125 2.3515623,4.833334 2.7109373,4.421875 3.0703123,4.005208 3.471354,3.638021 3.9140623,3.320313 4.3567706,2.997396 4.8385415,2.729167 5.3593748,2.515625 5.8802081,2.302084 6.4270833,2.153646 7.0000003,2.070313 V 1 H 4.9999998 V 0 H 10 V 1 H 8.0000003 v 1 c 0.723958,0 1.427083,0.106771 2.1093747,0.320313 0.6875,0.213541 1.325521,0.53125 1.914062,0.953125 l 1.625,-1.625 0.703125,0.703125 z M 8.0000003,15 c 0.828125,0 1.604166,-0.15625 2.3281247,-0.46875 0.729167,-0.317708 1.364583,-0.747395 1.90625,-1.289062 0.546875,-0.546875 0.976562,-1.182292 1.289062,-1.90625 C 13.841146,10.606771 14,9.828125 14,9 14,8.171875 13.841146,7.395834 13.523437,6.671875 13.210937,5.942708 12.78125,5.307292 12.234375,4.765625 11.692708,4.21875 11.057292,3.789063 10.328125,3.476563 9.6041663,3.158854 8.8281253,3 8.0000003,3 7.1718753,3 6.393229,3.158854 5.6640623,3.476563 4.940104,3.789063 4.3046873,4.21875 3.7578123,4.765625 3.2161456,5.307292 2.7864581,5.942708 2.4687498,6.671875 c -0.3125,0.723959 -0.46875,1.5 -0.46875,2.328125 0,0.828125 0.15625,1.606771 0.46875,2.335938 0.3177083,0.723958 0.7473958,1.359375 1.2890625,1.90625 0.546875,0.541667 1.1822917,0.971354 1.90625,1.289062 C 6.393229,14.84375 7.1718753,15 8.0000003,15 Z"
       style="font-size:16px;line-height:1.25;font-family:'Segoe MDL2 Assets';-inkscape-font-specification:'Segoe MDL2 Assets'"
       id="path3165"
       sodipodi:nodetypes="ccsccsccscccccsccccscccccccccccccscscscccscscscccs" />
    <path
       d="m 10.515625,9.384748 c 0.166667,0 0.330729,-0.01302 0.492187,-0.03906 0.161459,-0.03125 0.320313,-0.07552 0.476563,-0.132813 -0.04167,0.447917 -0.161458,0.864583 -0.359375,1.25 -0.197917,0.385417 -0.453125,0.721354 -0.765625,1.007813 -0.307292,0.286458 -0.6614589,0.510416 -1.0624998,0.671875 -0.401042,0.161458 -0.828125,0.242187 -1.28125,0.242187 -0.4843751,0 -0.9401051,-0.09115 -1.3671881,-0.273437 -0.421875,-0.182292 -0.791666,-0.432292 -1.109375,-0.75 -0.317708,-0.317709 -0.567708,-0.6875 -0.75,-1.109375 -0.182291,-0.427083 -0.273437,-0.882813 -0.273437,-1.367188 0,-0.453125 0.08073,-0.880208 0.2421871,-1.28125 0.1614589,-0.401041 0.385417,-0.755208 0.671875,-1.0625 0.2864589,-0.3125 0.622396,-0.567708 1.0078129,-0.765625 0.3854171,-0.197917 0.802083,-0.317708 1.25,-0.359375 -0.05729,0.15625 -0.101564,0.315104 -0.1328129,0.476563 -0.02604,0.161458 -0.03906,0.32552 -0.03906,0.492187 0,0.416667 0.07813,0.807292 0.234375,1.171875 0.15625,0.359375 0.3697921,0.677084 0.6406251,0.953125 0.276041,0.270833 0.59375,0.484375 0.953125,0.640625 0.364583,0.15625 0.7552077,0.234375 1.1718747,0.234375 z m -2.4999998,2.125 c 0.458333,0 0.885417,-0.111979 1.28125,-0.335937 0.395833,-0.223959 0.7109368,-0.53125 0.9453118,-0.921875 C 9.7630202,10.220686 9.3125002,10.106106 8.8906252,9.908186 8.4687502,9.705061 8.0963542,9.444644 7.7734372,9.126936 7.4557291,8.804019 7.1953122,8.431623 6.9921872,8.009748 6.7942701,7.587873 6.6796872,7.137353 6.6484372,6.658186 6.2578122,6.892561 5.9505211,7.207665 5.7265622,7.603498 5.5026042,7.999331 5.3906251,8.426415 5.3906251,8.884748 c 0,0.364583 0.06771,0.705729 0.203125,1.023438 0.140625,0.317708 0.328125,0.596354 0.5625,0.835937 0.239583,0.234375 0.518229,0.421875 0.8359371,0.5625 0.3177089,0.135417 0.658855,0.203125 1.023438,0.203125 z"
       style="font-size:16px;line-height:1.25;font-family:'Segoe MDL2 Assets';-inkscape-font-specification:'Segoe MDL2 Assets'"
       id="path3167"
       sodipodi:nodetypes="sccscsscscsscsccscccsssscccccsscccs" />
  </g>
</svg>
