<?xml version="1.0" encoding="UTF-8" standalone="no"?>
<!-- Created with Inkscape (http://www.inkscape.org/) -->

<svg
   width="24"
   height="24"
   viewBox="0 0 24 24"
   version="1.1"
   id="svg5"
   inkscape:version="1.1.1 (3bf5ae0d25, 2021-09-20)"
   sodipodi:docname="toolbar_sleeptimer_24px_margin_4px.svg"
   xmlns:inkscape="http://www.inkscape.org/namespaces/inkscape"
   xmlns:sodipodi="http://sodipodi.sourceforge.net/DTD/sodipodi-0.dtd"
   xmlns="http://www.w3.org/2000/svg"
   xmlns:svg="http://www.w3.org/2000/svg">
  <sodipodi:namedview
     id="namedview7"
     pagecolor="#ffffff"
     bordercolor="#666666"
     borderopacity="1.0"
     inkscape:showpageshadow="2"
     inkscape:pageopacity="0.0"
     inkscape:pagecheckerboard="0"
     inkscape:deskcolor="#d1d1d1"
     inkscape:document-units="mm"
     showgrid="false"
     inkscape:zoom="5.17549"
     inkscape:cx="-11.110059"
     inkscape:cy="14.394772"
     inkscape:window-width="1680"
     inkscape:window-height="987"
     inkscape:window-x="1672"
     inkscape:window-y="-8"
     inkscape:window-maximized="1"
     inkscape:current-layer="layer1"
     inkscape:pageshadow="2"
     width="22px"
     showguides="true"
     inkscape:guide-bbox="true">
    <sodipodi:guide
       position="0,20"
       orientation="0,1"
       id="guide1023"
       inkscape:label=""
       inkscape:locked="false"
       inkscape:color="rgb(0,0,255)" />
    <sodipodi:guide
       position="0,4"
       orientation="0,1"
       id="guide1025"
       inkscape:label=""
       inkscape:locked="false"
       inkscape:color="rgb(0,0,255)" />
    <sodipodi:guide
       position="4,24"
       orientation="-1,0"
       id="guide1027"
       inkscape:label=""
       inkscape:locked="false"
       inkscape:color="rgb(0,0,255)" />
    <sodipodi:guide
       position="20,24"
       orientation="-1,0"
       id="guide1029"
       inkscape:label=""
       inkscape:locked="false"
       inkscape:color="rgb(0,0,255)" />
  </sodipodi:namedview>
  <defs
     id="defs2" />
  <g
     inkscape:label="Lager 1"
     inkscape:groupmode="layer"
     id="layer1">
    <text
       xml:space="preserve"
       style="font-size:16px;line-height:1.25;font-family:'Segoe UI Symbol';-inkscape-font-specification:'Segoe UI Symbol'"
       x="30.066092"
       y="20.138317"
       id="text3222"><tspan
         sodipodi:role="line"
         id="tspan3220"
         x="30.066092"
         y="20.138317"
         style="font-style:normal;font-variant:normal;font-weight:normal;font-stretch:normal;font-size:16px;font-family:'Segoe MDL2 Assets';-inkscape-font-specification:'Segoe MDL2 Assets'"></tspan></text>
    <path
       d="m 37.686119,32.763778 c 0.703126,0.708333 1.244793,1.484375 1.625001,2.328125 0.380209,0.838542 0.570313,1.760417 0.570313,2.765625 0,0.645833 -0.08333,1.268229 -0.25,1.867188 -0.166667,0.59375 -0.403646,1.151042 -0.710938,1.671875 -0.302083,0.515625 -0.666667,0.986979 -1.093751,1.414062 -0.421875,0.421875 -0.893229,0.786459 -1.414062,1.09375 -0.515625,0.302083 -1.072917,0.536458 -1.671875,0.703125 -0.59375,0.166667 -1.213542,0.25 -1.859375,0.25 -0.645833,0 -1.268229,-0.08333 -1.867188,-0.25 -0.59375,-0.166667 -1.151041,-0.401042 -1.671875,-0.703125 -0.515625,-0.307291 -0.986979,-0.671875 -1.414062,-1.09375 -0.421875,-0.427083 -0.786458,-0.898437 -1.09375,-1.414062 -0.302083,-0.520833 -0.536458,-1.078125 -0.703125,-1.671875 -0.166667,-0.598959 -0.25,-1.221355 -0.25,-1.867188 0,-0.578125 0.06771,-1.140625 0.203125,-1.6875 0.140625,-0.546875 0.335937,-1.0625 0.585937,-1.546875 0.255209,-0.484375 0.5625,-0.932291 0.921875,-1.34375 0.359375,-0.416667 0.760417,-0.783854 1.203125,-1.101562 0.442709,-0.322917 0.92448,-0.591146 1.445313,-0.804688 0.520833,-0.213541 1.067708,-0.361979 1.640625,-0.445312 v -1.070313 h -2 v -1 h 5 v 1 h -2 v 1 c 0.723958,0 1.427083,0.106771 2.109375,0.320313 0.6875,0.213541 1.325521,0.53125 1.914062,0.953125 l 1.625001,-1.625 0.703125,0.703125 z"
       style="font-size:16px;line-height:1.25;font-family:'Segoe MDL2 Assets';-inkscape-font-specification:'Segoe MDL2 Assets'"
       id="path3165-4"
       sodipodi:nodetypes="ccsccsccscccccsccccsccccccccccccc" />
    <path
       d="m 36.254493,38.530844 c 0.218948,0 0.434475,-0.0171 0.64658,-0.05131 0.212107,-0.04105 0.420792,-0.09921 0.626055,-0.174475 -0.05474,0.588423 -0.212105,1.135792 -0.472106,1.64211 -0.260002,0.506318 -0.595266,0.947635 -1.005793,1.323953 -0.403686,0.376316 -0.868951,0.670527 -1.395794,0.882634 -0.526844,0.212106 -1.087899,0.318158 -1.683164,0.318158 -0.636318,0 -1.235005,-0.119742 -1.796059,-0.359211 C 30.62,41.873226 30.13421,41.544804 29.716839,41.127435 29.29947,40.710064 28.971048,40.224274 28.731573,39.670062 28.492099,39.109008 28.372362,38.51032 28.372362,37.874003 c 0,-0.595265 0.106054,-1.15632 0.318158,-1.683164 0.212107,-0.526843 0.506318,-0.992108 0.882635,-1.395794 0.376317,-0.410527 0.817634,-0.745791 1.323952,-1.005793 0.506318,-0.260001 1.053687,-0.417369 1.64211,-0.472106 -0.07526,0.205263 -0.133423,0.413948 -0.174475,0.626055 -0.03421,0.212105 -0.05131,0.427632 -0.05131,0.64658 0,0.547371 0.102639,1.060531 0.307896,1.539479 0.205264,0.472107 0.485792,0.889478 0.841582,1.252109 0.362632,0.355791 0.780003,0.636318 1.25211,0.841582 0.478948,0.205264 0.992108,0.307896 1.539478,0.307896 z"
       style="font-size:16px;line-height:1.25;font-family:'Segoe MDL2 Assets';-inkscape-font-specification:'Segoe MDL2 Assets';fill:#ff0000;stroke-width:1.31369"
       id="path3167-2"
       sodipodi:nodetypes="sccscsscscsscsccscccss" />
    <path
       d="m 18.453124,32.360862 c 0.703126,0.708333 1.244793,1.484375 1.625001,2.328125 0.380209,0.838542 0.570313,1.760417 0.570313,2.765625 0,0.645833 -0.08333,1.268229 -0.25,1.867188 -0.166667,0.59375 -0.403646,1.151042 -0.710938,1.671875 -0.302083,0.515625 -0.666667,0.986979 -1.093751,1.414062 -0.421875,0.421875 -0.893229,0.786459 -1.414062,1.09375 -0.515625,0.302083 -1.072917,0.536458 -1.671875,0.703125 -0.59375,0.166667 -1.213542,0.25 -1.859374,0.25 -0.645833,0 -1.268229,-0.08333 -1.867188,-0.25 C 11.1875,44.037945 10.630209,43.80357 10.109375,43.501487 9.59375,43.194196 9.122396,42.829612 8.695313,42.407737 8.273438,41.980654 7.908855,41.5093 7.601563,40.993675 7.299479,40.472842 7.065104,39.91555 6.898437,39.3218 c -0.166667,-0.598959 -0.25,-1.221355 -0.25,-1.867188 0,-0.578125 0.06771,-1.140625 0.203125,-1.6875 0.140625,-0.546875 0.335937,-1.0625 0.585937,-1.546875 C 7.692709,33.735862 8,33.287946 8.359375,32.876487 8.71875,32.45982 9.119792,32.092633 9.5625,31.774925 c 0.442709,-0.322917 0.92448,-0.591146 1.445313,-0.804688 0.520833,-0.213541 1.067708,-0.361979 1.640625,-0.445312 v -1.070313 h -2 v -1 h 4.999999 v 1 h -1.999999 v 1 c 0.723957,0 1.427082,0.106771 2.109374,0.320313 0.6875,0.213541 1.325521,0.53125 1.914062,0.953125 l 1.625001,-1.625 L 20,30.806175 Z"
       style="font-size:16px;line-height:1.25;font-family:'Segoe MDL2 Assets';-inkscape-font-specification:'Segoe MDL2 Assets'"
       id="path3165-4-1-7-7"
       sodipodi:nodetypes="ccsccsccscccccsccccsccccccccccccc" />
    <path
       d="m 17.893364,38.295802 c 0.27671,0 0.549099,-0.0216 0.817162,-0.06485 0.268065,-0.05189 0.531806,-0.125384 0.791222,-0.220504 -0.06919,0.743662 -0.268062,1.435437 -0.596658,2.075335 -0.328597,0.639895 -0.752311,1.19764 -1.271144,1.673241 -0.510187,0.475595 -1.0982,0.847426 -1.764035,1.11549 -0.665838,0.268065 -1.374911,0.402095 -2.12722,0.402095 -0.804192,0 -1.560826,-0.151331 -2.269898,-0.453977 C 10.772367,42.519974 10.158415,42.104909 9.630933,41.577428 9.103452,41.049945 8.688386,40.435993 8.385731,39.735568 8.083079,39.026494 7.931754,38.26986 7.931754,37.46567 c 0,-0.752312 0.134031,-1.461384 0.402095,-2.127221 0.268064,-0.665835 0.639895,-1.253848 1.115492,-1.764036 0.475598,-0.518834 1.033345,-0.942548 1.67324,-1.271143 0.639896,-0.328596 1.331673,-0.52748 2.075335,-0.596657 -0.09512,0.259415 -0.168623,0.523155 -0.220505,0.79122 -0.04323,0.268065 -0.06485,0.540453 -0.06485,0.817163 0,0.691779 0.12972,1.340323 0.389127,1.945629 0.259419,0.596659 0.613954,1.124141 1.06361,1.582441 0.458302,0.449658 0.985785,0.804193 1.582443,1.063612 0.605307,0.259417 1.25385,0.389124 1.945628,0.389124 z"
       style="font-size:16px;line-height:1.25;font-family:'Segoe MDL2 Assets';-inkscape-font-specification:'Segoe MDL2 Assets';fill:#ff0000;stroke-width:1.66028"
       id="path3167-2-7-9-4"
       sodipodi:nodetypes="sccscsscscsscsccscccss" />
    <path
       id="path3165-4-1-7-7-1"
       style="font-size:16px;line-height:1.25;font-family:'Segoe MDL2 Assets';-inkscape-font-specification:'Segoe MDL2 Assets'"
       d="m 9,4.0000003 v 1 h 2 V 6.0703128 C 10.427083,6.1536458 9.880208,6.3020843 9.359375,6.5156253 8.838542,6.729167 8.356772,6.997396 7.914063,7.320313 7.471355,7.638021 7.070313,8.005208 6.710938,8.421875 6.351563,8.833334 6.044273,9.28125 5.789063,9.765625 5.539063,10.25 5.34375,10.765625 5.203126,11.3125 5.06771,11.859375 5,12.421875 5,13 c 0,0.645833 0.08333,1.268228 0.25,1.867187 0.166667,0.59375 0.401041,1.151042 0.703126,1.671875 0.307291,0.515625 0.671875,0.98698 1.093749,1.414063 0.427083,0.421875 0.898438,0.786459 1.414063,1.09375 C 8.981772,19.348958 9.539063,19.583333 10.132813,19.75 10.731772,19.91667 11.354167,20 12,20 c 0.645832,0 1.265625,-0.08333 1.859375,-0.25 0.598958,-0.166667 1.15625,-0.401042 1.671875,-0.703125 0.520833,-0.307291 0.992188,-0.671875 1.414063,-1.09375 0.427084,-0.427083 0.791667,-0.898438 1.09375,-1.414063 C 18.346355,16.018229 18.583333,15.460937 18.75,14.867187 18.91667,14.268228 19,13.645833 19,13 19,11.994792 18.809897,11.072917 18.429688,10.234375 18.04948,9.390625 17.507814,8.6145829 16.804688,7.9062499 l 1.546875,-1.5546871 -0.703125,-0.703125 -1.625,1.6250002 C 15.434897,6.851563 14.796875,6.5338538 14.109375,6.3203128 13.427083,6.1067708 12.723957,6.0000003 12,6.0000003 v -1 h 2 v -1 z m 2.548828,3.2519527 c -0.09512,0.259415 -0.168821,0.522951 -0.220703,0.791016 -0.04323,0.268065 -0.06445,0.541649 -0.06445,0.818359 0,0.691779 0.129265,1.340007 0.388672,1.945312 0.259419,0.59666 0.614797,1.123732 1.064453,1.582032 0.458302,0.449658 0.985373,0.803081 1.582031,1.0625 0.605307,0.259417 1.253535,0.390625 1.945313,0.390625 0.27671,0 0.550296,-0.02316 0.818359,-0.06641 0.268065,-0.05189 0.5316,-0.12363 0.791016,-0.21875 -0.06919,0.743663 -0.26906,1.434321 -0.597656,2.074219 -0.328597,0.639895 -0.752652,1.198227 -1.271485,1.673828 -0.510187,0.475595 -1.097837,0.847171 -1.763672,1.115235 -0.665838,0.268065 -1.374644,0.402344 -2.126953,0.402344 -0.804192,0 -1.560459,-0.152433 -2.269531,-0.455079 C 9.123796,18.064526 8.509907,17.650525 7.982425,17.123044 7.454944,16.595561 7.038986,15.981672 6.736332,15.281247 6.43368,14.572173 6.283207,13.815906 6.283207,13.011716 6.283207,12.259404 6.417486,11.5506 6.68555,10.884763 6.953614,10.218928 7.325188,9.629326 7.800785,9.119138 8.276382,8.600304 8.834718,8.178202 9.474613,7.849607 10.114509,7.521011 10.805169,7.321127 11.548831,7.25195 Z" />
    <path
       d="m 56.782536,32.428246 c 0.703125,0.708332 1.244792,1.484375 1.625,2.328125 0.380209,0.838542 0.570313,1.760416 0.570313,2.765624 0,0.645833 -0.08333,1.268229 -0.25,1.867188 -0.166667,0.59375 -0.403646,1.151042 -0.710938,1.671875 -0.302083,0.515625 -0.666667,0.986979 -1.09375,1.414062 -0.421875,0.421875 -0.893229,0.786459 -1.414062,1.09375 -0.515625,0.302083 -1.072917,0.536458 -1.671875,0.703125 -0.59375,0.166667 -1.213542,0.25 -1.859375,0.25 -0.645833,0 -1.268229,-0.08333 -1.867188,-0.25 -0.59375,-0.166667 -1.151041,-0.401042 -1.671875,-0.703125 -0.515625,-0.307291 -0.986979,-0.671875 -1.414062,-1.09375 -0.421875,-0.427083 -0.786459,-0.898437 -1.09375,-1.414062 -0.302084,-0.520833 -0.536459,-1.078125 -0.703125,-1.671875 -0.166667,-0.598959 -0.25,-1.221355 -0.25,-1.867188 0,-0.578125 0.06771,-1.140625 0.203125,-1.687499 0.140625,-0.546875 0.335937,-1.0625 0.585937,-1.546875 0.255209,-0.484375 0.5625,-0.932291 0.921875,-1.34375 0.359375,-0.416668 0.760417,-0.783854 1.203125,-1.101563 0.442709,-0.322916 0.924479,-0.591145 1.445313,-0.804687 0.520833,-0.213541 1.067708,-0.361979 1.640625,-0.445313 v -1.070313 h -2 v -1 h 5 v 1 h -2 v 1.000001 c 0.723958,0 1.427083,0.106771 2.109375,0.320312 0.6875,0.213542 1.325521,0.53125 1.914062,0.953125 l 1.625,-1.625 0.703125,0.703125 z"
       style="font-size:16px;line-height:1.25;font-family:'Segoe MDL2 Assets';-inkscape-font-specification:'Segoe MDL2 Assets'"
       id="path3165-3"
       sodipodi:nodetypes="ccsccsccscccccsccccsccccccccccccc" />
    <path
       d="m 54.493474,37.906744 c 0.166667,0 0.330729,-0.01302 0.492187,-0.03906 0.161459,-0.03125 0.320313,-0.07552 0.476563,-0.132814 -0.04167,0.447917 -0.161458,0.864583 -0.359375,1.25 -0.197917,0.385417 -0.453125,0.721355 -0.765625,1.007814 -0.307292,0.286457 -0.661459,0.510416 -1.0625,0.671875 -0.401042,0.161458 -0.828125,0.242187 -1.28125,0.242187 -0.484375,0 -0.940105,-0.09115 -1.367188,-0.273437 -0.421875,-0.182292 -0.791666,-0.432292 -1.109375,-0.75 -0.317708,-0.317709 -0.567708,-0.6875 -0.75,-1.109375 -0.182291,-0.427083 -0.273437,-0.882813 -0.273437,-1.367188 0,-0.453125 0.08073,-0.880209 0.242187,-1.28125 0.161459,-0.401041 0.385417,-0.755208 0.671875,-1.0625 0.286459,-0.3125 0.622396,-0.567708 1.007813,-0.765625 0.385417,-0.197917 0.802083,-0.317708 1.25,-0.359375 -0.05729,0.15625 -0.101564,0.315104 -0.132813,0.476563 -0.02604,0.161458 -0.03906,0.32552 -0.03906,0.492187 0,0.416667 0.07813,0.807292 0.234375,1.171874 0.15625,0.359375 0.369792,0.677084 0.640625,0.953125 0.276041,0.270833 0.59375,0.484375 0.953125,0.640625 0.364583,0.15625 0.755208,0.234375 1.171875,0.234375 z"
       style="font-size:16px;line-height:1.25;font-family:'Segoe MDL2 Assets';-inkscape-font-specification:'Segoe MDL2 Assets';fill:#ff0000"
       id="path3167-9"
       sodipodi:nodetypes="sccscsscscsscsccscccss" />
  </g>
</svg>
