<?xml version="1.0" encoding="UTF-8" standalone="no"?>
<!-- Created with Inkscape (http://www.inkscape.org/) -->

<svg
   width="16"
   height="16"
   viewBox="0 0 16 16"
   version="1.1"
   id="svg5"
   inkscape:version="1.1.1 (3bf5ae0d25, 2021-09-20)"
   sodipodi:docname="toolbar_sleeptimer_16px.svg"
   xmlns:inkscape="http://www.inkscape.org/namespaces/inkscape"
   xmlns:sodipodi="http://sodipodi.sourceforge.net/DTD/sodipodi-0.dtd"
   xmlns="http://www.w3.org/2000/svg"
   xmlns:svg="http://www.w3.org/2000/svg">
  <sodipodi:namedview
     id="namedview7"
     pagecolor="#ffffff"
     bordercolor="#666666"
     borderopacity="1.0"
     inkscape:showpageshadow="2"
     inkscape:pageopacity="0.0"
     inkscape:pagecheckerboard="0"
     inkscape:deskcolor="#d1d1d1"
     inkscape:document-units="mm"
     showgrid="false"
     inkscape:zoom="10.35098"
     inkscape:cx="19.080319"
     inkscape:cy="26.905665"
     inkscape:window-width="1680"
     inkscape:window-height="987"
     inkscape:window-x="1672"
     inkscape:window-y="-8"
     inkscape:window-maximized="1"
     inkscape:current-layer="layer1"
     inkscape:pageshadow="2"
     width="22px"
     showguides="true"
     inkscape:guide-bbox="true" />
  <defs
     id="defs2" />
  <g
     inkscape:label="Lager 1"
     inkscape:groupmode="layer"
     id="layer1">
    <text
       xml:space="preserve"
       style="font-size:16px;line-height:1.25;font-family:'Segoe UI Symbol';-inkscape-font-specification:'Segoe UI Symbol'"
       x="25.839933"
       y="15.854571"
       id="text3222"><tspan
         sodipodi:role="line"
         id="tspan3220"
         x="25.839933"
         y="15.854571"
         style="font-style:normal;font-variant:normal;font-weight:normal;font-stretch:normal;font-size:16px;font-family:'Segoe MDL2 Assets';-inkscape-font-specification:'Segoe MDL2 Assets'"></tspan></text>
    <path
       d="m 35.920614,28.866469 c 0.703126,0.708333 1.244793,1.484375 1.625001,2.328125 0.380209,0.838542 0.570313,1.760417 0.570313,2.765625 0,0.645833 -0.08333,1.268229 -0.25,1.867188 -0.166667,0.59375 -0.403646,1.151042 -0.710938,1.671875 -0.302083,0.515625 -0.666667,0.986979 -1.093751,1.414062 -0.421875,0.421875 -0.893229,0.786459 -1.414062,1.09375 -0.515625,0.302083 -1.072917,0.536458 -1.671875,0.703125 -0.59375,0.166667 -1.213542,0.25 -1.859375,0.25 -0.645833,0 -1.268229,-0.08333 -1.867188,-0.25 -0.59375,-0.166667 -1.151041,-0.401042 -1.671875,-0.703125 -0.515625,-0.307291 -0.986979,-0.671875 -1.414062,-1.09375 -0.421875,-0.427083 -0.786458,-0.898437 -1.09375,-1.414062 -0.302083,-0.520833 -0.536458,-1.078125 -0.703125,-1.671875 -0.166667,-0.598959 -0.25,-1.221355 -0.25,-1.867188 0,-0.578125 0.06771,-1.140625 0.203125,-1.6875 0.140625,-0.546875 0.335937,-1.0625 0.585937,-1.546875 0.255209,-0.484375 0.5625,-0.932291 0.921875,-1.34375 0.359375,-0.416667 0.760417,-0.783854 1.203125,-1.101562 0.442709,-0.322917 0.92448,-0.591146 1.445313,-0.804688 0.520833,-0.213541 1.067708,-0.361979 1.640625,-0.445312 v -1.070313 h -2 v -1 h 5 v 1 h -2 v 1 c 0.723958,0 1.427083,0.106771 2.109375,0.320313 0.6875,0.213541 1.325521,0.53125 1.914062,0.953125 l 1.625001,-1.625 0.703125,0.703125 z"
       style="font-size:16px;line-height:1.25;font-family:'Segoe MDL2 Assets';-inkscape-font-specification:'Segoe MDL2 Assets'"
       id="path3165-4"
       sodipodi:nodetypes="ccsccsccscccccsccccsccccccccccccc" />
    <path
       d="m 34.488988,34.633535 c 0.218948,0 0.434475,-0.0171 0.64658,-0.05131 0.212107,-0.04105 0.420792,-0.09921 0.626055,-0.174475 -0.05474,0.588423 -0.212105,1.135792 -0.472106,1.64211 -0.260002,0.506318 -0.595266,0.947635 -1.005793,1.323953 -0.403686,0.376316 -0.868951,0.670527 -1.395794,0.882634 -0.526844,0.212106 -1.087899,0.318158 -1.683164,0.318158 -0.636318,0 -1.235005,-0.119742 -1.796059,-0.359211 -0.554212,-0.239477 -1.040002,-0.567899 -1.457373,-0.985268 -0.417369,-0.417371 -0.745791,-0.903161 -0.985266,-1.457373 -0.239474,-0.561054 -0.359211,-1.159742 -0.359211,-1.796059 0,-0.595265 0.106054,-1.15632 0.318158,-1.683164 0.212107,-0.526843 0.506318,-0.992108 0.882635,-1.395794 0.376317,-0.410527 0.817634,-0.745791 1.323952,-1.005793 0.506318,-0.260001 1.053687,-0.417369 1.64211,-0.472106 -0.07526,0.205263 -0.133423,0.413948 -0.174475,0.626055 -0.03421,0.212105 -0.05131,0.427632 -0.05131,0.64658 0,0.547371 0.102639,1.060531 0.307896,1.539479 0.205264,0.472107 0.485792,0.889478 0.841582,1.252109 0.362632,0.355791 0.780003,0.636318 1.25211,0.841582 0.478948,0.205264 0.992108,0.307896 1.539478,0.307896 z"
       style="font-size:16px;line-height:1.25;font-family:'Segoe MDL2 Assets';-inkscape-font-specification:'Segoe MDL2 Assets';fill:#ff0000;stroke-width:1.31369"
       id="path3167-2"
       sodipodi:nodetypes="sccscsscscsscsccscccss" />
    <path
       d="m 16.687619,28.463553 c 0.703126,0.708333 1.244793,1.484375 1.625001,2.328125 0.380209,0.838542 0.570313,1.760417 0.570313,2.765625 0,0.645833 -0.08333,1.268229 -0.25,1.867188 -0.166667,0.59375 -0.403646,1.151042 -0.710938,1.671875 -0.302083,0.515625 -0.666667,0.986979 -1.093751,1.414062 -0.421875,0.421875 -0.893229,0.786459 -1.414062,1.09375 -0.515625,0.302083 -1.072917,0.536458 -1.671875,0.703125 -0.59375,0.166667 -1.213542,0.25 -1.859374,0.25 -0.645833,0 -1.268229,-0.08333 -1.867188,-0.25 -0.5937497,-0.166667 -1.1510407,-0.401042 -1.6718747,-0.703125 -0.515625,-0.307291 -0.986979,-0.671875 -1.414062,-1.09375 -0.421875,-0.427083 -0.786458,-0.898437 -1.09375,-1.414062 -0.302084,-0.520833 -0.536459,-1.078125 -0.703126,-1.671875 -0.166667,-0.598959 -0.25,-1.221355 -0.25,-1.867188 0,-0.578125 0.06771,-1.140625 0.203125,-1.6875 0.140625,-0.546875 0.335937,-1.0625 0.585937,-1.546875 0.25521,-0.484375 0.562501,-0.932291 0.921876,-1.34375 0.359375,-0.416667 0.760417,-0.783854 1.203125,-1.101562 0.442709,-0.322917 0.92448,-0.591146 1.445313,-0.804688 0.520833,-0.213541 1.0677077,-0.361979 1.6406247,-0.445312 V 25.557303 H 8.8829333 v -1 h 4.9999987 v 1 h -1.999999 v 1 c 0.723957,0 1.427082,0.106771 2.109374,0.320313 0.6875,0.213541 1.325521,0.53125 1.914062,0.953125 l 1.625001,-1.625 0.703125,0.703125 z"
       style="font-size:16px;line-height:1.25;font-family:'Segoe MDL2 Assets';-inkscape-font-specification:'Segoe MDL2 Assets'"
       id="path3165-4-1-7-7"
       sodipodi:nodetypes="ccsccsccscccccsccccsccccccccccccc" />
    <path
       d="m 16.127859,34.398493 c 0.27671,0 0.549099,-0.0216 0.817162,-0.06485 0.268065,-0.05189 0.531806,-0.125384 0.791222,-0.220504 -0.06919,0.743662 -0.268062,1.435437 -0.596658,2.075335 -0.328597,0.639895 -0.752311,1.19764 -1.271144,1.673241 -0.510187,0.475595 -1.0982,0.847426 -1.764035,1.11549 -0.665838,0.268065 -1.374911,0.402095 -2.12722,0.402095 -0.804192,0 -1.560826,-0.151331 -2.2698977,-0.453977 -0.700426,-0.302658 -1.314378,-0.717723 -1.84186,-1.245204 -0.527481,-0.527483 -0.942547,-1.141435 -1.245202,-1.84186 -0.302652,-0.709074 -0.453977,-1.465708 -0.453977,-2.269898 0,-0.752312 0.134031,-1.461384 0.402095,-2.127221 0.268064,-0.665835 0.639895,-1.253848 1.115492,-1.764036 0.475598,-0.518834 1.033345,-0.942548 1.67324,-1.271143 0.639896,-0.328596 1.3316727,-0.52748 2.0753347,-0.596657 -0.09512,0.259415 -0.168623,0.523155 -0.220505,0.79122 -0.04323,0.268065 -0.06485,0.540453 -0.06485,0.817163 0,0.691779 0.12972,1.340323 0.389127,1.945629 0.259419,0.596659 0.613954,1.124141 1.06361,1.582441 0.458302,0.449658 0.985785,0.804193 1.582443,1.063612 0.605307,0.259417 1.25385,0.389124 1.945628,0.389124 z"
       style="font-size:16px;line-height:1.25;font-family:'Segoe MDL2 Assets';-inkscape-font-specification:'Segoe MDL2 Assets';fill:#ff0000;stroke-width:1.66028"
       id="path3167-2-7-9-4"
       sodipodi:nodetypes="sccscsscscsscsccscccss" />
    <path
       id="path3165-4-1-7-7-1"
       style="font-size:16px;line-height:1.25;font-family:'Segoe MDL2 Assets';-inkscape-font-specification:'Segoe MDL2 Assets'"
       d="M 5.0000002,-4.9999999e-8 V 0.99999995 h 2 V 2.0703125 C 6.4270832,2.1536455 5.8802082,2.302084 5.3593752,2.515625 4.8385422,2.729167 4.3567717,2.9973955 3.9140627,3.3203125 c -0.442708,0.317708 -0.84375,0.6848955 -1.203125,1.1015625 -0.359375,0.4114589 -0.666665,0.859375 -0.921875,1.34375 -0.25,0.4843751 -0.445313,1.0000001 -0.585937,1.5468751 -0.1354159,0.546875 -0.20312595,1.109375 -0.20312595,1.6875 0,0.645833 0.0833301,1.2682279 0.25000005,1.8671869 0.166667,0.59375 0.4010409,1.151042 0.7031259,1.671875 0.307291,0.515625 0.6718751,0.98698 1.0937495,1.414063 0.427083,0.421875 0.8984375,0.786459 1.4140625,1.09375 0.520834,0.302083 1.078125,0.536458 1.671875,0.703125 0.598959,0.16667 1.2213545,0.25 1.8671875,0.25 0.6458321,0 1.265625,-0.08333 1.859375,-0.25 0.5989578,-0.166667 1.1562498,-0.401042 1.6718748,-0.703125 0.520833,-0.307291 0.992188,-0.671875 1.414063,-1.09375 0.427084,-0.427083 0.791667,-0.898438 1.09375,-1.414063 C 14.346355,12.018229 14.583333,11.460937 14.75,10.867187 14.91667,10.268228 15,9.6458331 15,9.0000001 15,7.9947921 14.809897,7.0729171 14.429688,6.2343751 14.04948,5.3906245 13.507814,4.614583 12.804688,3.90625 l 1.546875,-1.5546875 -0.703125,-0.703125 -1.625,1.625 C 11.434897,2.8515625 10.796875,2.5338535 10.109375,2.3203125 9.4270832,2.1067705 8.7239573,2 8.0000002,2 V 0.99999995 H 10 V -4.9999999e-8 Z M 7.5488283,3.2519531 c -0.09512,0.259415 -0.1688211,0.5229506 -0.2207031,0.7910156 -0.04323,0.268065 -0.064453,0.5416494 -0.064453,0.8183594 0,0.691779 0.1292649,1.340007 0.3886718,1.945312 0.2594191,0.59666 0.6147972,1.123732 1.0644532,1.582032 0.458302,0.449658 0.9853732,0.803081 1.5820308,1.0625 0.605307,0.259417 1.253535,0.390625 1.945313,0.390625 0.27671,0 0.550296,-0.023156 0.818359,-0.066407 0.268065,-0.05189 0.5316,-0.12363 0.791016,-0.21875 -0.06919,0.7436629 -0.26906,1.4343209 -0.597656,2.0742189 -0.328597,0.639895 -0.752652,1.198227 -1.271485,1.673828 -0.510187,0.475595 -1.097837,0.847171 -1.763672,1.115235 -0.6658375,0.268065 -1.3746437,0.402344 -2.1269527,0.402344 -0.804192,0 -1.5604593,-0.152433 -2.2695313,-0.455079 C 5.123793,14.064529 4.5099042,13.650528 3.9824222,13.123047 3.4549412,12.595564 3.0389833,11.981675 2.7363288,11.28125 2.4336768,10.572176 2.2832038,9.8159091 2.2832038,9.0117191 c 0,-0.752312 0.134279,-1.461116 0.402343,-2.126953 C 2.9536109,6.218931 3.3251847,5.6293286 3.8007816,5.1191406 4.2763795,4.6003066 4.8347147,4.1782044 5.4746097,3.8496093 6.1145057,3.5210133 6.8051664,3.3211301 7.5488283,3.2519531 Z" />
    <path
       d="m 55.017031,28.530937 c 0.703125,0.708332 1.244792,1.484375 1.625,2.328125 0.380209,0.838542 0.570313,1.760416 0.570313,2.765624 0,0.645833 -0.08333,1.268229 -0.25,1.867188 -0.166667,0.59375 -0.403646,1.151042 -0.710938,1.671875 -0.302083,0.515625 -0.666667,0.986979 -1.09375,1.414062 -0.421875,0.421875 -0.893229,0.786459 -1.414062,1.09375 -0.515625,0.302083 -1.072917,0.536458 -1.671875,0.703125 -0.59375,0.166667 -1.213542,0.25 -1.859375,0.25 -0.645833,0 -1.268229,-0.08333 -1.867188,-0.25 -0.59375,-0.166667 -1.151041,-0.401042 -1.671875,-0.703125 -0.515625,-0.307291 -0.986979,-0.671875 -1.414062,-1.09375 -0.421875,-0.427083 -0.786459,-0.898437 -1.09375,-1.414062 -0.302084,-0.520833 -0.536459,-1.078125 -0.703125,-1.671875 -0.166667,-0.598959 -0.25,-1.221355 -0.25,-1.867188 0,-0.578125 0.06771,-1.140625 0.203125,-1.687499 0.140625,-0.546875 0.335937,-1.0625 0.585937,-1.546875 0.255209,-0.484375 0.5625,-0.932291 0.921875,-1.34375 0.359375,-0.416668 0.760417,-0.783854 1.203125,-1.101563 0.442709,-0.322916 0.924479,-0.591145 1.445313,-0.804687 0.520833,-0.213541 1.067708,-0.361979 1.640625,-0.445313 v -1.070313 h -2 v -1 h 5 v 1 h -2 v 1.000001 c 0.723958,0 1.427083,0.106771 2.109375,0.320312 0.6875,0.213542 1.325521,0.53125 1.914062,0.953125 l 1.625,-1.625 0.703125,0.703125 z"
       style="font-size:16px;line-height:1.25;font-family:'Segoe MDL2 Assets';-inkscape-font-specification:'Segoe MDL2 Assets'"
       id="path3165-3"
       sodipodi:nodetypes="ccsccsccscccccsccccsccccccccccccc" />
    <path
       d="m 52.727969,34.009435 c 0.166667,0 0.330729,-0.01302 0.492187,-0.03906 0.161459,-0.03125 0.320313,-0.07552 0.476563,-0.132814 -0.04167,0.447917 -0.161458,0.864583 -0.359375,1.25 -0.197917,0.385417 -0.453125,0.721355 -0.765625,1.007814 -0.307292,0.286457 -0.661459,0.510416 -1.0625,0.671875 -0.401042,0.161458 -0.828125,0.242187 -1.28125,0.242187 -0.484375,0 -0.940105,-0.09115 -1.367188,-0.273437 -0.421875,-0.182292 -0.791666,-0.432292 -1.109375,-0.75 -0.317708,-0.317709 -0.567708,-0.6875 -0.75,-1.109375 -0.182291,-0.427083 -0.273437,-0.882813 -0.273437,-1.367188 0,-0.453125 0.08073,-0.880209 0.242187,-1.28125 0.161459,-0.401041 0.385417,-0.755208 0.671875,-1.0625 0.286459,-0.3125 0.622396,-0.567708 1.007813,-0.765625 0.385417,-0.197917 0.802083,-0.317708 1.25,-0.359375 -0.05729,0.15625 -0.101564,0.315104 -0.132813,0.476563 -0.02604,0.161458 -0.03906,0.32552 -0.03906,0.492187 0,0.416667 0.07813,0.807292 0.234375,1.171874 0.15625,0.359375 0.369792,0.677084 0.640625,0.953125 0.276041,0.270833 0.59375,0.484375 0.953125,0.640625 0.364583,0.15625 0.755208,0.234375 1.171875,0.234375 z"
       style="font-size:16px;line-height:1.25;font-family:'Segoe MDL2 Assets';-inkscape-font-specification:'Segoe MDL2 Assets';fill:#ff0000"
       id="path3167-9"
       sodipodi:nodetypes="sccscsscscsscsccscccss" />
  </g>
</svg>
