<?xml version="1.0" encoding="UTF-8" standalone="no"?>
<!-- Created with Inkscape (http://www.inkscape.org/) -->

<svg
   width="16"
   height="16"
   viewBox="0 0 16 16"
   version="1.1"
   id="svg5"
   inkscape:version="1.1.1 (3bf5ae0d25, 2021-09-20)"
   sodipodi:docname="toolbar_settings_16px.svg"
   xmlns:inkscape="http://www.inkscape.org/namespaces/inkscape"
   xmlns:sodipodi="http://sodipodi.sourceforge.net/DTD/sodipodi-0.dtd"
   xmlns="http://www.w3.org/2000/svg"
   xmlns:svg="http://www.w3.org/2000/svg">
  <sodipodi:namedview
     id="namedview7"
     pagecolor="#ffffff"
     bordercolor="#666666"
     borderopacity="1.0"
     inkscape:showpageshadow="2"
     inkscape:pageopacity="0.0"
     inkscape:pagecheckerboard="0"
     inkscape:deskcolor="#d1d1d1"
     inkscape:document-units="mm"
     showgrid="false"
     inkscape:zoom="10.35098"
     inkscape:cx="16.665089"
     inkscape:cy="15.505778"
     inkscape:window-width="1680"
     inkscape:window-height="987"
     inkscape:window-x="1672"
     inkscape:window-y="-8"
     inkscape:window-maximized="1"
     inkscape:current-layer="layer1"
     inkscape:pageshadow="2"
     width="22px" />
  <defs
     id="defs2" />
  <g
     inkscape:label="Lager 1"
     inkscape:groupmode="layer"
     id="layer1">
    <text
       xml:space="preserve"
       style="font-size:16px;line-height:1.25;font-family:'Segoe UI Symbol';-inkscape-font-specification:'Segoe UI Symbol'"
       x="22.156185"
       y="15.808772"
       id="text3222"><tspan
         sodipodi:role="line"
         id="tspan3220"
         x="22.156185"
         y="15.808772"
         style="font-style:normal;font-variant:normal;font-weight:normal;font-stretch:normal;font-size:16px;font-family:'Segoe MDL2 Assets';-inkscape-font-specification:'Segoe MDL2 Assets'"></tspan></text>
    <g
       aria-label=""
       id="text3222-1"
       style="font-size:16px;line-height:1.25;font-family:'Segoe UI Symbol';-inkscape-font-specification:'Segoe UI Symbol'">
      <path
         d="m 13.929688,7.71875 q 0,0.070312 0,0.140625 0.0078,0.070312 0.0078,0.140625 0,0.070312 -0.0078,0.140625 0,0.070312 0,0.140625 L 15.953125,9.5390625 14.710938,12.53125 12.390625,12 Q 12.203125,12.203125 12,12.390625 L 12.53125,14.710938 9.5390625,15.953125 8.28125,13.929688 q -0.070312,0 -0.140625,0.0078 -0.070312,0 -0.140625,0 -0.070312,0 -0.140625,0 -0.070312,-0.0078 -0.140625,-0.0078 L 6.4609375,15.953125 3.46875,14.710938 4,12.390625 Q 3.796875,12.203125 3.609375,12 L 1.2890625,12.53125 0.046875,9.5390625 2.0703125,8.28125 q 0,-0.070312 -0.00781,-0.140625 0,-0.070312 0,-0.140625 0,-0.070312 0,-0.140625 0.00781,-0.070312 0.00781,-0.140625 L 0.046875,6.4609375 1.2890625,3.46875 3.609375,4 Q 3.796875,3.796875 4,3.609375 L 3.46875,1.2890625 6.4609375,0.046875 7.71875,2.0703125 q 0.070312,0 0.140625,0 Q 7.9296875,2.0625 8,2.0625 q 0.070312,0 0.140625,0.00781 0.070312,0 0.140625,0 L 9.5390625,0.046875 12.53125,1.2890625 12,3.609375 Q 12.203125,3.796875 12.390625,4 l 2.320313,-0.53125 1.242187,2.9921875 z m -0.914063,1.015625 q 0.01563,-0.1875 0.03125,-0.3671875 0.01563,-0.1875 0.01563,-0.375 Q 13.0625,7.8125 13.046875,7.625 13.03125,7.4375 13.015625,7.2578125 l 1.84375,-1.1484375 -0.671875,-1.625 -2.117187,0.4921875 q -0.242188,-0.296875 -0.5,-0.546875 -0.25,-0.25 -0.546875,-0.5 L 11.515625,1.8125 9.890625,1.140625 8.734375,2.984375 Q 8.5546875,2.96875 8.3671875,2.953125 8.1796875,2.9375 8,2.9375 7.8125,2.9375 7.625,2.953125 7.4453125,2.96875 7.2578125,2.984375 L 6.109375,1.140625 4.484375,1.8125 4.9765625,3.9296875 q -0.296875,0.2421875 -0.546875,0.5 -0.25,0.25 -0.5,0.546875 L 1.8125,4.484375 l -0.671875,1.625 1.84375,1.15625 q -0.015625,0.1875 -0.03125,0.375 Q 2.9375,7.8203125 2.9375,8.0078125 2.9375,8.1875 2.953125,8.375 2.96875,8.5625 2.984375,8.7421875 l -1.84375,1.1484375 0.671875,1.625 2.1171875,-0.492187 q 0.2421875,0.296875 0.4921875,0.546875 0.2578125,0.25 0.5546875,0.5 L 4.484375,14.1875 l 1.625,0.671875 1.15625,-1.84375 q 0.1796875,0.01563 0.3671875,0.03125 Q 7.8203125,13.0625 8,13.0625 q 0.1875,0 0.3671875,-0.01563 0.1875,-0.01563 0.375,-0.03125 l 1.1484375,1.84375 1.625,-0.671875 -0.492187,-2.117187 q 0.296875,-0.242188 0.546875,-0.492188 0.25,-0.257812 0.5,-0.554687 l 2.117187,0.492187 0.671875,-1.625 z M 8,5.0625 q 0.609375,0 1.140625,0.234375 0.5390625,0.2265625 0.9375,0.625 0.398438,0.3984375 0.625,0.9375 Q 10.9375,7.390625 10.9375,8 q 0,0.609375 -0.234375,1.1484375 -0.226562,0.53125 -0.625,0.9296875 -0.3984375,0.398438 -0.9375,0.632813 Q 8.609375,10.9375 8,10.9375 7.390625,10.9375 6.8515625,10.710938 6.3203125,10.476563 5.921875,10.078125 5.5234375,9.6796875 5.2890625,9.1484375 5.0625,8.609375 5.0625,8 5.0625,7.390625 5.2890625,6.859375 5.5234375,6.3203125 5.921875,5.921875 6.3203125,5.5234375 6.8515625,5.296875 7.390625,5.0625 8,5.0625 Z m 0,5 q 0.4296875,0 0.8046875,-0.15625 0.375,-0.1640625 0.65625,-0.4453125 0.28125,-0.28125 0.4375,-0.65625 Q 10.0625,8.4296875 10.0625,8 q 0,-0.4296875 -0.1640625,-0.8046875 -0.15625,-0.375 -0.4375,-0.65625 -0.28125,-0.28125 -0.65625,-0.4375 Q 8.4296875,5.9375 8,5.9375 q -0.4296875,0 -0.8046875,0.1640625 -0.375,0.15625 -0.65625,0.4375 -0.28125,0.28125 -0.4453125,0.65625 Q 5.9375,7.5703125 5.9375,8 q 0,0.4296875 0.15625,0.8046875 0.1640625,0.375 0.4453125,0.65625 0.28125,0.28125 0.65625,0.4453125 Q 7.5703125,10.0625 8,10.0625 Z"
         style="font-family:'Segoe MDL2 Assets';-inkscape-font-specification:'Segoe MDL2 Assets'"
         id="path4273" />
    </g>
  </g>
</svg>
